<?xml version="1.0" standalone="no"?>
<!DOCTYPE svg PUBLIC "-//W3C//DTD SVG 20010904//EN"
 "http://www.w3.org/TR/2001/REC-SVG-20010904/DTD/svg10.dtd">
<svg version="1.0" xmlns="http://www.w3.org/2000/svg"
 width="820.000000pt" height="486.000000pt" viewBox="0 0 820.000000 486.000000"
 preserveAspectRatio="xMidYMid meet">

<g transform="translate(0.000000,486.000000) scale(0.100000,-0.100000)"
fill="#000000" stroke="none">
<path d="M3870 4429 c-905 -104 -1632 -813 -1764 -1722 -21 -141 -21 -425 -1
-566 131 -894 831 -1591 1724 -1715 143 -20 398 -20 543 -1 591 82 1125 424
1438 925 495 790 388 1809 -261 2477 -321 331 -733 538 -1187 597 -132 17
-366 19 -492 5z m341 -1493 c98 -21 184 -69 260 -145 190 -190 209 -475 44
-686 -194 -250 -557 -273 -780 -50 -69 69 -125 171 -144 263 -57 277 124 557
399 616 84 19 140 19 221 2z m-826 -723 c38 -132 135 -278 245 -369 68 -56
214 -128 300 -148 76 -18 246 -21 322 -5 149 30 266 94 378 208 97 98 140 165
181 283 l28 83 521 3 520 2 -6 -47 c-57 -466 -296 -896 -659 -1190 -426 -345
-1027 -473 -1560 -332 -586 154 -1053 593 -1242 1168 -38 115 -83 323 -83 382
0 18 16 19 519 19 l520 0 16 -57z"/>
<path d="M3994 2656 c-59 -27 -116 -90 -132 -145 -19 -61 -15 -149 9 -198 95
-196 379 -189 470 12 22 47 24 134 5 187 -50 140 -215 208 -352 144z"/>
</g>
</svg>
